---
title: container
date: 2017-11-28 21:28:00 -02:00
---

<svg xmlns="http://www.w3.org/2000/svg" viewBox="0 0 512 512"><path d="M0 251.89v259.85h511.88V251.89H0zm496.178 244.15H15.7V267.59H496.18v228.45zM496.3 228.442v-8.374h-15.7v8.374h-31.403v-8.374h-15.7v8.374H78.66v-8.374h-15.7v8.374H31.558v-8.374h-15.7v8.374H.158v15.7H512v-15.7"/><path d="M47.26 282.87V480.7h15.7V298.572h15.7v-15.7M101.688 282.87V480.7h15.7V298.572h16.748v-15.7M158.21 282.87V480.7h15.7V298.572h15.702v-15.7M212.64 282.87V480.7h15.7V298.572h15.7v-15.7M268.116 282.87V480.7h15.7V298.572h15.7v-15.7M322.545 282.87V480.7h15.7V298.572h15.7v-15.7M378.02 282.87V480.7h15.7V298.572h16.75v-15.7M433.496 282.87V480.7h15.7V298.572H464.9v-15.7M55.105 188.885h-.52v-4.63l13.43-13.32-11.055-11.148-18.075 17.925v11.184c-12.798.25-23.133 10.733-23.133 23.59h15.7c0-4.2 3.295-7.634 7.434-7.878v8.134h15.7v-8.157h.52c4.357 0 7.902 3.544 7.902 7.9h15.7c0-13.013-10.588-23.6-23.603-23.6zM299.517 20.212V.26H212.64V19.96L65.623 151.502l10.47 11.702L212.64 41.03v20.984h86.877V41.28l136.27 121.924 10.47-11.7L299.516 20.21zm-15.7 26.102H228.34V15.96h55.476v30.354zM473.272 188.902v-11.19l-18.075-17.926-11.056 11.146 13.43 13.32v4.63h-.798c-13.015 0-23.602 10.59-23.602 23.602h15.7c0-4.356 3.546-7.9 7.903-7.9h.8v8.156h15.7v-8.12c4.007.38 7.154 3.76 7.154 7.864h15.7c0-12.763-10.186-23.185-22.855-23.582z"/><path d="M244.04 23.286h24.075v15.7H244.04z"/></svg>