<?xml version="1.0" encoding="iso-8859-1"?>
<!-- Generator: Adobe Illustrator 19.0.0, SVG Export Plug-In . SVG Version: 6.00 Build 0)  -->
<svg version="1.1" id="Layer_1" xmlns="http://www.w3.org/2000/svg" xmlns:xlink="http://www.w3.org/1999/xlink" x="0px" y="0px"
	 viewBox="0 0 512 512" style="enable-background:new 0 0 512 512;" xml:space="preserve">
<g>
	<g>
		<path d="M0,251.889v259.852h511.879V251.889H0z M496.178,496.04H15.701V267.59h480.477V496.04z"/>
	</g>
</g>
<g>
	<g>
		<polygon points="496.299,228.442 496.299,220.068 480.599,220.068 480.599,228.442 449.197,228.442 449.197,220.068 
			433.496,220.068 433.496,228.442 78.661,228.442 78.661,220.068 62.96,220.068 62.96,228.442 31.558,228.442 31.558,220.068 
			15.858,220.068 15.858,228.442 0.157,228.442 0.157,244.143 512,244.143 512,228.442 		"/>
	</g>
</g>
<g>
	<g>
		<polygon points="47.259,282.871 47.259,480.7 62.96,480.7 62.96,298.572 78.661,298.572 78.661,282.871 		"/>
	</g>
</g>
<g>
	<g>
		<polygon points="101.688,282.871 101.688,480.7 117.389,480.7 117.389,298.572 134.136,298.572 134.136,282.871 		"/>
	</g>
</g>
<g>
	<g>
		<polygon points="158.211,282.871 158.211,480.7 173.911,480.7 173.911,298.572 189.612,298.572 189.612,282.871 		"/>
	</g>
</g>
<g>
	<g>
		<polygon points="212.64,282.871 212.64,480.7 228.341,480.7 228.341,298.572 244.041,298.572 244.041,282.871 		"/>
	</g>
</g>
<g>
	<g>
		<polygon points="268.116,282.871 268.116,480.7 283.816,480.7 283.816,298.572 299.517,298.572 299.517,282.871 		"/>
	</g>
</g>
<g>
	<g>
		<polygon points="322.545,282.871 322.545,480.7 338.246,480.7 338.246,298.572 353.946,298.572 353.946,282.871 		"/>
	</g>
</g>
<g>
	<g>
		<polygon points="378.021,282.871 378.021,480.7 393.721,480.7 393.721,298.572 410.469,298.572 410.469,282.871 		"/>
	</g>
</g>
<g>
	<g>
		<polygon points="433.496,282.871 433.496,480.7 449.197,480.7 449.197,298.572 464.898,298.572 464.898,282.871 		"/>
	</g>
</g>
<g>
	<g>
		<path d="M55.105,188.885h-0.519v-4.631l13.43-13.32L56.96,159.787l-18.075,17.925v11.184
			c-12.798,0.251-23.133,10.733-23.133,23.59h15.701c0-4.199,3.294-7.634,7.433-7.878v8.134h15.701v-8.157h0.519
			c4.357,0,7.902,3.544,7.902,7.901h15.701C78.708,199.472,68.12,188.885,55.105,188.885z"/>
	</g>
</g>
<g>
	<g>
		<path d="M299.517,20.212V0.259H212.64v19.703L65.623,151.503l10.469,11.701L212.64,41.03v20.984h86.877V41.279l136.27,121.925
			l10.469-11.701L299.517,20.212z M283.816,46.314h-55.476V15.959h55.476V46.314z"/>
	</g>
</g>
<g>
	<g>
		<path d="M473.272,188.902v-11.19l-18.075-17.926l-11.056,11.146l13.43,13.32v4.631h-0.799c-13.015,0-23.602,10.588-23.602,23.601
			h15.701c0-4.356,3.545-7.901,7.902-7.901h0.799v8.157h15.701v-8.119c4.007,0.378,7.154,3.759,7.154,7.863h15.701
			C496.127,199.721,485.941,189.299,473.272,188.902z"/>
	</g>
</g>
<g>
	<g>
		<rect x="244.041" y="23.286" width="24.074" height="15.701"/>
	</g>
</g>
<g>
</g>
<g>
</g>
<g>
</g>
<g>
</g>
<g>
</g>
<g>
</g>
<g>
</g>
<g>
</g>
<g>
</g>
<g>
</g>
<g>
</g>
<g>
</g>
<g>
</g>
<g>
</g>
<g>
</g>
</svg>
