<?xml version="1.0" encoding="iso-8859-1"?>
<!-- Generator: Adobe Illustrator 19.0.0, SVG Export Plug-In . SVG Version: 6.00 Build 0)  -->
<svg version="1.1" id="Layer_1" xmlns="http://www.w3.org/2000/svg" xmlns:xlink="http://www.w3.org/1999/xlink" x="0px" y="0px"
	 viewBox="0 0 496 496" style="enable-background:new 0 0 496 496;" xml:space="preserve">
<g>
	<g>
		<g>
			<path d="M144,224H32v112h112V224z M128,320H48v-80h80V320z"/>
			<path d="M144,352H32v112h112V352z M128,448H48v-80h80V448z"/>
			<path d="M272,224H160v112h112V224z M256,320h-80v-80h80V320z"/>
			<path d="M272,352H160v112h112V352z M256,448h-80v-80h80V448z"/>
			<polygon points="80,304 96,304 96,288 112,288 112,272 96,272 96,256 80,256 80,272 64,272 64,288 80,288 			"/>
			<rect x="192" y="272" width="48" height="16"/>
			<polygon points="69.656,437.656 88,419.312 106.344,437.656 117.656,426.344 99.312,408 117.656,389.656 106.344,378.344 
				88,396.688 69.656,378.344 58.344,389.656 76.688,408 58.344,426.344 			"/>
			<rect x="192" y="384" width="48" height="16"/>
			<rect x="192" y="416" width="48" height="16"/>
			<path d="M192,0v32h-32v64H0v400h304v-32h160v-32h32V0H192z M176,48h208v16H192v32h-16V48z M288,480H16V208h272V480z M288,192H16
				v-80h272V192z M208,96V80h176v32h32v112H304V96H208z M400,96V59.312L436.688,96H400z M448,448H304v-16h96v-16h-96v-16h128v-16
				H304v-16h128v-16H304v-16h128v-16H304v-16h128v-16H304v-16h128v-16H304v-16h128V112h16V448z M480,416h-16V100.688L395.312,32H208
				V16h272V416z"/>
			<rect x="416" y="416" width="16" height="16"/>
		</g>
	</g>
</g>
<g>
</g>
<g>
</g>
<g>
</g>
<g>
</g>
<g>
</g>
<g>
</g>
<g>
</g>
<g>
</g>
<g>
</g>
<g>
</g>
<g>
</g>
<g>
</g>
<g>
</g>
<g>
</g>
<g>
</g>
</svg>
