<svg xmlns="http://www.w3.org/2000/svg" viewBox="0 0 512 512"><path d="M427.346 24.758H251.003c-8.319 0-15.063 6.744-15.063 15.063v92.355h206.469V39.821c0-8.319-6.744-15.063-15.063-15.063zM483.876 162.303H190.183V445.8h293.693c15.532 0 28.124-12.592 28.124-28.124V190.427c0-15.532-12.592-28.124-28.124-28.124zm-202.65 249.461h-19.484c-8.319 0-15.063-6.744-15.063-15.063s6.744-15.063 15.063-15.063h19.484c8.319 0 15.063 6.744 15.063 15.063s-6.744 15.063-15.063 15.063zm0-46.303h-19.484c-8.319 0-15.063-6.744-15.063-15.063s6.744-15.063 15.063-15.063h19.484c8.319 0 15.063 6.744 15.063 15.063s-6.744 15.063-15.063 15.063zm0-46.304h-19.484c-8.319 0-15.063-6.744-15.063-15.063s6.744-15.063 15.063-15.063h19.484c8.319 0 15.063 6.744 15.063 15.063s-6.744 15.063-15.063 15.063zm67.69 92.607h-19.484c-8.319 0-15.063-6.744-15.063-15.063s6.744-15.063 15.063-15.063h19.484c8.319 0 15.063 6.744 15.063 15.063s-6.744 15.063-15.063 15.063zm0-46.303h-19.484c-8.319 0-15.063-6.744-15.063-15.063s6.744-15.063 15.063-15.063h19.484c8.319 0 15.063 6.744 15.063 15.063s-6.744 15.063-15.063 15.063zm0-46.304h-19.484c-8.319 0-15.063-6.744-15.063-15.063s6.744-15.063 15.063-15.063h19.484c8.319 0 15.063 6.744 15.063 15.063s-6.744 15.063-15.063 15.063zm67.69 92.607h-19.484c-8.319 0-15.063-6.744-15.063-15.063s6.744-15.063 15.063-15.063h19.484c8.319 0 15.063 6.744 15.063 15.063s-6.744 15.063-15.063 15.063zm0-46.303h-19.484c-8.319 0-15.063-6.744-15.063-15.063s6.744-15.063 15.063-15.063h19.484c8.319 0 15.063 6.744 15.063 15.063s-6.744 15.063-15.063 15.063zm0-46.304h-19.484c-8.319 0-15.063-6.744-15.063-15.063s6.744-15.063 15.063-15.063h19.484c8.319 0 15.063 6.744 15.063 15.063s-6.744 15.063-15.063 15.063zm0-74.658H261.742c-8.319 0-15.063-6.744-15.063-15.063s6.744-15.063 15.063-15.063h154.864c8.319 0 15.063 6.744 15.063 15.063s-6.744 15.063-15.063 15.063zM144.994 120.862h-71.68c-8.306 0-15.063 6.757-15.063 15.063v336.254c0 8.306 6.757 15.063 15.063 15.063h71.679c8.306 0 15.063-6.757 15.063-15.063V135.925h.001c0-8.306-6.757-15.063-15.063-15.063zM0 190.427v227.249C0 433.208 12.592 445.8 28.124 445.8V162.303C12.592 162.303 0 174.895 0 190.427z" fill="#FFF"/></svg>