<svg xmlns="http://www.w3.org/2000/svg" viewBox="0 0 512.277 512.277"><path d="M341.333 170.805c-5.12 0-8.533 3.413-8.533 8.533v17.067c0 5.12 3.413 8.533 8.533 8.533 5.12 0 8.533-3.413 8.533-8.533v-17.067c0-5.12-3.413-8.533-8.533-8.533zM366.933 170.805c-5.12 0-8.533 3.413-8.533 8.533v17.067c0 5.12 3.413 8.533 8.533 8.533s8.533-3.413 8.533-8.533v-17.067c0-5.12-3.413-8.533-8.533-8.533zM392.533 170.805c-5.12 0-8.533 3.413-8.533 8.533v17.067c0 5.12 3.413 8.533 8.533 8.533 5.12 0 8.533-3.413 8.533-8.533v-17.067c0-5.12-3.413-8.533-8.533-8.533z"/><path d="M511.147 388.405c-2.56-11.093-10.24-20.48-20.48-25.6l-14.653-7.72 8.63-73.347h1.756c5.12 0 8.533-3.413 8.533-8.533v-51.2c0-5.12-3.413-8.533-8.533-8.533h-59.733V153.74c0-5.12-3.413-8.534-8.533-8.534h-5.547l-37.12-29.696V84.646c19.68-3.86 34.133-20.878 34.133-41.84C409.6 18.91 390.827.137 366.933.137c-22.11 0-39.825 16.08-42.347 37.415L108.053 170.805H8.533c-5.12 0-8.533 3.413-8.533 8.533v51.2c0 1.707.853 3.413 1.707 5.12l17.067 25.6c1.707 1.707 4.267 3.413 6.827 3.413H68.27v32.997l-24.084 64.225c-.766 1.096-1.262 2.426-1.437 3.94-.178.847-.197 1.647-.08 2.413v135.36c0 5.12 3.414 8.533 8.534 8.533h136.534c5.12 0 8.533-3.413 8.533-8.533V367.072c0-2.034-.546-3.79-1.516-5.18l-24.083-64.225v-62.862L358.4 94.005v21.504l-37.12 29.695h-5.547c-5.12 0-8.533 3.413-8.533 8.533v59.733h-59.733c-5.12 0-8.533 3.414-8.533 8.534v51.2c0 5.12 3.413 8.533 8.533 8.533h9.354l8 74.907-11.38 6.16c-10.24 5.12-17.92 14.507-21.332 25.6s-1.707 23.04 5.12 32.427l54.613 87.04c.854 2.56 4.268 4.268 6.828 4.268h145.067c2.56 0 5.973-1.707 7.68-3.413l29.867-48.64c.25-.5.495-1.08.702-1.705l23.192-37.548c6.824-9.387 8.53-21.334 5.97-32.427zm-116.054-75.947c-5.726-3.083-13.96-5.014-22.927-5.12-8.642-.214-18.03 1.28-26.566 5.12l-64.853 34.987-6.738-64.853h193.617l-7.588 64.08-64.947-34.214zm-28.16-295.253c14.507 0 25.6 11.093 25.6 25.6 0 14.507-11.093 25.6-25.6 25.6s-25.6-11.093-25.6-25.6c0-14.507 11.094-25.6 25.6-25.6zM17.067 227.978V187.87H102.4v59.735H29.867l-12.8-19.627zm93.866 36.694c5.12 0 8.533-3.413 8.533-8.533V239.07H153.6v51.2H85.333v-25.6h25.6zm68.267 230.4H59.733v-17.067H102.4c5.12 0 8.533-3.413 8.533-8.533s-3.413-8.533-8.533-8.533H59.733V443.87h25.6c5.12 0 8.533-3.413 8.533-8.533s-3.413-8.534-8.533-8.534h-25.6v-51.2H179.2v119.466zM63.147 358.538l19.627-51.2h73.387l18.774 51.2H63.147zm96.426-136.533h-40.107v-37.547L325.973 57.312c4.267 10.24 11.947 18.773 21.333 23.893l-187.733 140.8zm207.36-91.477l18.347 14.677h-36.693l18.346-14.677zm-42.666 31.744H409.6v51.2h-85.333v-51.2zM256 230.538h221.866v34.133H256V230.54zm47.787 264.534l-23.04-36.693 74.24-36.694c11.093-5.12 23.893-5.12 34.133 0l72.533 36.693-22.187 36.692h-135.68zm187.733-83.627l-20.642 33.162-74.078-37.43c-15.36-7.68-32.427-7.68-48.64 0l-76.142 37.68-21.138-33.413c-4.267-5.12-5.12-11.947-3.413-18.773 1.707-5.972 5.973-11.092 12.8-14.506l15.95-8.634c.566-.088.96-.263 1.07-.578l75.993-41.134c4.786-2.21 10.365-3.142 15.78-3.22 6.825.013 13.308 1.357 17.5 3.22l76.8 40.107c.697.465 1.395.79 2.092 1.003l17.535 9.237c5.973 2.56 10.24 7.68 11.947 14.507 1.706 5.973.853 12.8-3.414 18.773z"/><path d="M366.933 51.338c5.12 0 8.533-3.413 8.533-8.533s-3.413-8.533-8.533-8.533-8.533 3.413-8.533 8.533 3.413 8.533 8.533 8.533z"/></svg>