<svg xmlns="http://www.w3.org/2000/svg" viewBox="0 0 490.667 490.667" width="512" height="512"><path d="M480 426.667c-24.277 0-36.885 13.739-46.997 24.789-9.152 9.984-16.405 17.877-31.296 17.877-14.891 0-22.144-7.893-31.317-17.877-10.133-11.051-22.763-24.789-47.019-24.789-24.235 0-36.821 13.739-46.955 24.789-9.152 9.984-16.384 17.877-31.232 17.877-14.827 0-22.059-7.893-31.211-17.877-10.112-11.029-22.699-24.789-46.955-24.789-24.256 0-36.843 13.76-46.955 24.789-9.131 9.984-16.363 17.877-31.211 17.877-14.848 0-22.08-7.893-31.232-17.877-10.112-11.029-22.72-24.789-46.955-24.789C4.779 426.667 0 431.445 0 437.333 0 443.221 4.779 448 10.667 448c14.848 0 22.08 7.893 31.232 17.877 10.112 11.029 22.72 24.789 46.955 24.789s36.821-13.76 46.955-24.789C144.94 455.893 152.193 448 167.02 448s22.059 7.893 31.211 17.877c10.112 11.029 22.72 24.789 46.955 24.789s36.821-13.739 46.955-24.789c9.152-9.984 16.384-17.877 31.232-17.877 14.869 0 22.123 7.893 31.296 17.877 10.133 11.029 22.741 24.789 47.019 24.789 24.277 0 36.885-13.739 47.019-24.789C457.856 455.893 465.109 448 480 448c5.888 0 10.667-4.779 10.667-10.667s-4.779-10.666-10.667-10.666z" fill="#D80027"/><path d="M480 384c-24.277 0-36.885 13.739-46.997 24.789-9.152 9.984-16.405 17.877-31.296 17.877-14.891 0-22.144-7.893-31.317-17.877C360.256 397.739 347.627 384 323.371 384c-24.235 0-36.821 13.739-46.955 24.789-9.152 9.984-16.384 17.877-31.232 17.877-14.827 0-22.059-7.893-31.211-17.877C203.861 397.76 191.275 384 167.019 384s-36.843 13.76-46.955 24.789c-9.131 9.984-16.363 17.877-31.211 17.877-14.848 0-22.08-7.893-31.232-17.877C47.509 397.76 34.901 384 10.667 384 4.779 384 0 388.779 0 394.667s4.779 10.667 10.667 10.667c14.848 0 22.08 7.893 31.232 17.877C52.011 434.24 64.619 448 88.853 448s36.821-13.76 46.955-24.789c9.131-9.984 16.384-17.877 31.211-17.877s22.059 7.893 31.211 17.877C208.341 434.24 220.949 448 245.184 448s36.821-13.739 46.955-24.789c9.152-9.984 16.384-17.877 31.232-17.877 14.869 0 22.123 7.893 31.296 17.877C364.8 434.24 377.408 448 401.685 448s36.885-13.739 47.019-24.789c9.152-9.984 16.405-17.877 31.296-17.877 5.888 0 10.667-4.779 10.667-10.667S485.888 384 480 384z" fill="#D80027"/><path d="M446.784 261.675a10.72 10.72 0 0 0-7.125-5.44l-192-42.667a10.6 10.6 0 0 0-4.629 0l-192 42.667a10.717 10.717 0 0 0-7.125 5.44 10.737 10.737 0 0 0-.469 8.939l64 160c2.197 5.504 8.448 8.128 13.867 5.952 5.483-2.197 8.149-8.405 5.952-13.867L67.904 274.347l177.429-39.424 177.429 39.424-59.349 148.352c-2.176 5.461.491 11.669 5.952 13.867a10.42 10.42 0 0 0 3.968.768 10.71 10.71 0 0 0 9.92-6.72l64-160a10.737 10.737 0 0 0-.469-8.939z" fill="#D80027"/><path d="M245.333 256c-5.888 0-10.667 4.779-10.667 10.667v170.667c0 5.888 4.779 10.667 10.667 10.667S256 443.221 256 437.333V266.667c0-5.888-4.779-10.667-10.667-10.667z" fill="#D80027"/><path d="M394.667 64H96c-5.888 0-10.667 4.779-10.667 10.667V256c0 5.888 4.779 10.667 10.667 10.667s10.667-4.779 10.667-10.667V85.333H384V256c0 5.888 4.779 10.667 10.667 10.667s10.667-4.779 10.667-10.667V74.667C405.333 68.779 400.555 64 394.667 64z" fill="#D80027"/><path d="M394.667 192H96c-5.888 0-10.667 4.779-10.667 10.667S90.112 213.333 96 213.333h298.667c5.888 0 10.667-4.779 10.667-10.667S400.555 192 394.667 192zM394.667 128H96c-5.888 0-10.667 4.779-10.667 10.667S90.112 149.333 96 149.333h298.667c5.888 0 10.667-4.779 10.667-10.667S400.555 128 394.667 128zM352 0H138.667C132.779 0 128 4.779 128 10.667v64c0 5.888 4.779 10.667 10.667 10.667s10.667-4.779 10.667-10.667V21.333h192v53.333c0 5.888 4.779 10.667 10.667 10.667s10.667-4.779 10.667-10.667v-64C362.667 4.779 357.888 0 352 0z" fill="#D80027"/><path d="M160 64c-5.888 0-10.667 4.779-10.667 10.667v160c0 5.888 4.779 10.667 10.667 10.667s10.667-4.779 10.667-10.667v-160C170.667 68.779 165.888 64 160 64zM245.333 64c-5.888 0-10.667 4.779-10.667 10.667V224c0 5.888 4.779 10.667 10.667 10.667S256 229.888 256 224V74.667C256 68.779 251.221 64 245.333 64zM309.333 64c-5.888 0-10.667 4.779-10.667 10.667v160c0 5.888 4.779 10.667 10.667 10.667S320 240.555 320 234.667v-160C320 68.779 315.221 64 309.333 64z" fill="#D80027"/><path d="M224 0c-5.888 0-10.667 4.779-10.667 10.667v64c0 5.888 4.779 10.667 10.667 10.667s10.667-4.779 10.667-10.667v-64C234.667 4.779 229.888 0 224 0z" fill="#D80027"/></svg>