<svg xmlns="http://www.w3.org/2000/svg" viewBox="0 0 453.5 453.5"><path d="M433.5 205.856c-8.375 0-15.553 5.18-18.528 12.5H265.856v-17.5h65.856c1.99 0 3.896-.79 5.304-2.197l15.16-15.162c2.7 1.36 5.74 2.146 8.963 2.146 11.027 0 20-8.972 20-20s-8.973-20-20-20-20 8.972-20 20c0 2.298.408 4.497 1.124 6.553l-13.658 13.66h-62.75v-20.75l13.857-13.858c2.49 1.115 5.242 1.75 8.143 1.75 11.028 0 20-8.973 20-20s-8.972-20-20-20-20 8.97-20 20c0 2.63.524 5.138 1.45 7.44l-16.254 16.256c-1.406 1.406-2.196 3.314-2.196 5.303v23.855h-17.5V38.528c7.32-2.974 12.5-10.152 12.5-18.528 0-11.028-8.972-20-20-20s-20 8.972-20 20c0 8.375 5.18 15.553 12.5 18.528v147.33h-17.5v-64.07c0-1.99-.79-3.897-2.196-5.303l-15.163-15.16c1.36-2.7 2.146-5.74 2.146-8.964 0-11.027-8.972-20-20-20s-20 8.973-20 20 8.972 20 20 20c2.297 0 4.496-.408 6.553-1.124l13.66 13.66v60.96h-60.963l-13.66-13.66c.717-2.055 1.126-4.254 1.126-6.552 0-11.028-8.973-20-20-20s-20 8.972-20 20 8.97 20 20 20c3.223 0 6.262-.785 8.962-2.146l15.16 15.162c1.408 1.406 3.315 2.197 5.305 2.197h64.07v17.5H38.526c-2.973-7.32-10.15-12.5-18.527-12.5-11.028 0-20 8.972-20 20s8.972 20 20 20c8.375 0 15.553-5.18 18.528-12.5h147.33v17.5H162c-1.99 0-3.896.79-5.304 2.197l-16.254 16.254c-2.303-.927-4.81-1.45-7.442-1.45-11.028 0-20 8.97-20 20s8.972 20 20 20 20-8.973 20-20c0-2.902-.635-5.653-1.75-8.144l13.857-13.857h20.75v62.75l-13.66 13.66c-2.056-.717-4.255-1.126-6.553-1.126-11.028 0-20 8.973-20 20s8.972 20 20 20 20-8.97 20-20c0-3.223-.785-6.262-2.146-8.962l15.163-15.16c1.407-1.407 2.197-3.315 2.197-5.304v-65.856h17.5v149.116c-7.32 2.974-12.5 10.152-12.5 18.528 0 11.028 8.972 20 20 20s20-8.972 20-20c0-8.375-5.18-15.553-12.5-18.528V265.856h17.5V291.5c0 1.99.79 3.897 2.196 5.303l16.255 16.255c-.927 2.303-1.45 4.81-1.45 7.442 0 11.028 8.97 20 20 20s20-8.972 20-20-8.973-20-20-20c-2.902 0-5.653.635-8.144 1.75l-13.857-13.857v-22.537h22.537l13.857 13.857c-1.115 2.49-1.75 5.242-1.75 8.143 0 11.028 8.973 20 20 20s20-8.972 20-20-8.97-20-20-20c-2.63 0-5.138.524-7.44 1.45l-16.255-16.253c-1.407-1.406-3.314-2.197-5.304-2.197h-25.643v-17.5h149.116c2.974 7.32 10.152 12.5 18.528 12.5 11.03 0 20-8.972 20-20s-8.972-20-20-20zm-72.36-45.212c2.757 0 5 2.243 5 5s-2.243 5-5 5-5-2.243-5-5 2.243-5 5-5zM287.856 128c2.757 0 5 2.243 5 5s-2.243 5-5 5-5-2.243-5-5 2.244-5 5-5zm-62-113c2.757 0 5 2.243 5 5s-2.243 5-5 5-5-2.243-5-5 2.244-5 5-5zm-65.212 77.36c0-2.757 2.243-5 5-5s5 2.243 5 5-2.243 5-5 5-5-2.243-5-5zM92.36 170.644c-2.758 0-5-2.243-5-5s2.242-5 5-5 5 2.243 5 5-2.244 5-5 5zM20 230.856c-2.757 0-5-2.243-5-5s2.243-5 5-5 5 2.243 5 5-2.243 5-5 5zm113 62c-2.757 0-5-2.243-5-5s2.243-5 5-5 5 2.243 5 5-2.243 5-5 5zm32.644 73.284c-2.757 0-5-2.243-5-5s2.243-5 5-5 5 2.243 5 5-2.244 5-5 5zm60.212 72.36c-2.757 0-5-2.243-5-5s2.243-5 5-5 5 2.243 5 5-2.243 5-5 5zm67-118c0 2.757-2.243 5-5 5s-5-2.243-5-5 2.243-5 5-5 5 2.243 5 5zm32.644-32.644c0 2.757-2.243 5-5 5s-5-2.243-5-5 2.243-5 5-5 5 2.243 5 5zm-74.644-87v17.5h-17.5v-17.5h17.5zm-50 0h17.5v17.5h-17.5v-17.5zm0 50v-17.5h17.5v17.5h-17.5zm50 0h-17.5v-17.5h17.5v17.5zm182.644-20c-2.757 0-5-2.243-5-5s2.243-5 5-5 5 2.243 5 5-2.243 5-5 5z"/></svg>