<svg xmlns="http://www.w3.org/2000/svg" width="34.546" height="34.546" viewBox="0 0 34.546 34.546"><path d="M29.33 19.34c-2.326-.546-5.3-1.97-6.377-3.738-.603-.984-.666-2.094-.18-3.042.028-.05.075-.128.11-.188-.028-.21.02-.486.172-.847l.02-.044H11.122l.014.033v.002c.27.418.503.792.628 1.033.495.96.43 2.07-.17 3.055-1.08 1.77-4.053 3.193-6.38 3.738L4.57 30.125c-.07 1.183.705 2.15 1.723 2.15H28.25c1.02 0 1.793-.968 1.722-2.15L29.33 19.34zm-15.647 7.425H11.62c-.38 0-.687-.31-.687-.688s.308-.688.688-.688h2.063c.38 0 .688.308.688.687s-.308.688-.687.688zm0-2.622H11.62c-.38 0-.687-.308-.687-.687 0-.382.308-.688.688-.688h2.063c.38 0 .688.306.688.688 0 .38-.308.687-.687.687zm0-2.622H11.62c-.38 0-.687-.307-.687-.687 0-.38.308-.688.688-.688h2.063c.38 0 .688.31.688.688s-.308.688-.687.688zm4.62 5.245h-2.06c-.38 0-.688-.31-.688-.688s.31-.688.688-.688h2.062c.38 0 .688.308.688.687-.002.38-.31.688-.69.688zm0-2.622h-2.06c-.38 0-.688-.308-.688-.687 0-.382.31-.688.688-.688h2.062c.38 0 .688.306.688.688-.002.38-.31.687-.69.687zm0-2.622h-2.06c-.38 0-.688-.307-.688-.687 0-.38.31-.688.688-.688h2.062c.38 0 .688.31.688.688-.002.38-.31.688-.69.688zm4.62 5.245h-2.06c-.38 0-.688-.31-.688-.688s.308-.688.687-.688h2.062c.38 0 .688.308.688.687 0 .38-.306.688-.688.688zm0-2.622h-2.06c-.38 0-.688-.308-.688-.687 0-.382.308-.688.687-.688h2.062c.38 0 .688.306.688.688 0 .38-.306.687-.688.687zm0-2.622h-2.06c-.38 0-.688-.307-.688-.687 0-.38.308-.688.687-.688h2.062c.38 0 .688.31.688.688 0 .38-.306.688-.688.688zm11.45-8.406c-.044.216-.046.44-.13.646-.498 1.202-1.43 2.197-2.116 3.305-.885 1.414-8.406-1.634-7.437-3.52.365-.7 1.79-2.627 1.896-3.402.098-.692-.818-1.233-1.664-1.302-2.232-.18-5.083-.016-7.452 0h-.395c-2.37-.016-5.22-.18-7.452 0-.846.07-1.762.61-1.665 1.303.108.775 1.53 2.703 1.896 3.4.97 1.888-6.55 4.936-7.435 3.522C1.73 15.957.8 14.962.302 13.76c-.084-.205-.086-.43-.13-.646-1.103-4.93 3.15-9.96 9.552-10.476 2.445-.198 4.896-.31 7.35-.354v-.012c.066 0 .13.005.197.006.065 0 .13-.005.198-.006v.012c2.452.044 4.903.156 7.35.354 6.402.515 10.654 5.547 9.552 10.476z"/></svg>