<?xml version="1.0" encoding="iso-8859-1"?>
<!-- Generator: Adobe Illustrator 19.0.0, SVG Export Plug-In . SVG Version: 6.00 Build 0)  -->
<svg version="1.1" id="Capa_1" xmlns="http://www.w3.org/2000/svg" xmlns:xlink="http://www.w3.org/1999/xlink" x="0px" y="0px"
	 viewBox="0 0 480 480" style="enable-background:new 0 0 480 480;" xml:space="preserve">
<g>
	<g>
		<path d="M472,1.232H56c-4.416,0-8,3.584-8,8v208v32v32c0,4.416,3.584,8,8,8h416c4.416,0,8-3.584,8-8v-32v-32v-208
			C480,4.816,476.416,1.232,472,1.232z M464,273.232H64v-16h400V273.232z M464,241.232H64v-16h400V241.232z M464,209.232H64v-192
			h400V209.232z"/>
	</g>
</g>
<g>
	<g>
		<path d="M440,65.232c-13.512,0-24-12.904-24-24c0-4.416-3.584-8-8-8H120c-4.416,0-8,3.584-8,8c0,11.096-10.488,24-24,24
			c-4.416,0-8,3.584-8,8v80c0,4.416,3.584,8,8,8c13.232,0,24,10.768,24,24c0,4.416,3.584,8,8,8h288c4.416,0,8-3.584,8-8
			c0-13.232,10.768-24,24-24c4.416,0,8-3.584,8-8v-80C448,68.816,444.416,65.232,440,65.232z M432,146.04
			c-15.648,3.184-28.008,15.544-31.192,31.192H127.192c-3.184-15.648-15.544-28.008-31.192-31.192V80.36
			c15.176-3.36,27.76-15.944,31.12-31.12h273.76C404.24,64.416,416.824,77,432,80.36V146.04z"/>
	</g>
</g>
<g>
	<g>
		<path d="M264,65.232c-26.472,0-48,21.528-48,48s21.528,48,48,48s48-21.528,48-48S290.472,65.232,264,65.232z M264,145.232
			c-17.648,0-32-14.352-32-32s14.352-32,32-32s32,14.352,32,32S281.648,145.232,264,145.232z"/>
	</g>
</g>
<g>
	<g>
		<path d="M438.672,330.808c-5.92-4.984-13.688-7.064-21.312-5.752L258.72,352.64l-45.064-45.064
			c-1.496-1.504-3.536-2.344-5.656-2.344h-80H96H0v16h88v96H0v16h96h32h22.112L235.64,476c3.704,1.848,7.704,2.768,11.696,2.768
			c4.552,0,9.096-1.192,13.168-3.568l174.512-101.8c8-4.672,12.976-13.328,12.976-22.584
			C447.992,343.08,444.6,335.784,438.672,330.808z M120,417.232h-16v-96h16V417.232z M426.968,359.576l-174.52,101.8
			c-2.968,1.728-6.576,1.832-9.656,0.312l-87.216-43.608c-1.104-0.56-2.336-0.848-3.576-0.848h-16v-96h68.688l63.024,63.024
			c2.768,2.768,4.288,6.44,4.288,10.344c0,8.072-6.56,14.632-14.632,14.632c-3.904,0-7.576-1.52-10.344-4.288l-41.368-41.368
			l-11.312,11.312l41.368,41.368c5.792,5.792,13.48,8.976,21.656,8.976c16.896,0,30.632-13.736,30.632-30.632
			c0-8.176-3.184-15.872-8.976-21.656l-6.472-6.472l147.56-25.664c2.96-0.512,5.976,0.296,8.272,2.232
			c2.296,1.936,3.616,4.768,3.616,7.768C432,354.4,430.072,357.76,426.968,359.576z"/>
	</g>
</g>
<g>
</g>
<g>
</g>
<g>
</g>
<g>
</g>
<g>
</g>
<g>
</g>
<g>
</g>
<g>
</g>
<g>
</g>
<g>
</g>
<g>
</g>
<g>
</g>
<g>
</g>
<g>
</g>
<g>
</g>
</svg>
