<svg xmlns="http://www.w3.org/2000/svg" viewBox="0 0 480 480"><path d="M472 1.232H56c-4.416 0-8 3.584-8 8v272c0 4.416 3.584 8 8 8h416c4.416 0 8-3.584 8-8v-272c0-4.416-3.584-8-8-8zm-8 272H64v-16h400v16zm0-32H64v-16h400v16zm0-32H64v-192h400v192z"/><path d="M440 65.232c-13.512 0-24-12.904-24-24 0-4.416-3.584-8-8-8H120c-4.416 0-8 3.584-8 8 0 11.096-10.488 24-24 24-4.416 0-8 3.584-8 8v80c0 4.416 3.584 8 8 8 13.232 0 24 10.768 24 24 0 4.416 3.584 8 8 8h288c4.416 0 8-3.584 8-8 0-13.232 10.768-24 24-24 4.416 0 8-3.584 8-8v-80c0-4.416-3.584-8-8-8zm-8 80.808c-15.648 3.184-28.008 15.544-31.192 31.192H127.192c-3.184-15.648-15.544-28.008-31.192-31.192V80.36c15.176-3.36 27.76-15.944 31.12-31.12h273.76C404.24 64.416 416.824 77 432 80.36v65.68z"/><path d="M264 65.232c-26.472 0-48 21.528-48 48s21.528 48 48 48 48-21.528 48-48-21.528-48-48-48zm0 80c-17.648 0-32-14.352-32-32s14.352-32 32-32 32 14.352 32 32-14.352 32-32 32zM438.672 330.808c-5.92-4.984-13.688-7.064-21.312-5.752L258.72 352.64l-45.064-45.064c-1.496-1.504-3.536-2.344-5.656-2.344H0v16h88v96H0v16h150.112L235.64 476c3.704 1.848 7.704 2.768 11.696 2.768 4.552 0 9.096-1.192 13.168-3.568l174.512-101.8c8-4.672 12.976-13.328 12.976-22.584 0-7.736-3.392-15.032-9.32-20.008zM120 417.232h-16v-96h16v96zm306.968-57.656l-174.52 101.8c-2.968 1.728-6.576 1.832-9.656.312l-87.216-43.608c-1.104-.56-2.336-.848-3.576-.848h-16v-96h68.688l63.024 63.024c2.768 2.768 4.288 6.44 4.288 10.344 0 8.072-6.56 14.632-14.632 14.632-3.904 0-7.576-1.52-10.344-4.288l-41.368-41.368-11.312 11.312 41.368 41.368c5.792 5.792 13.48 8.976 21.656 8.976 16.896 0 30.632-13.736 30.632-30.632 0-8.176-3.184-15.872-8.976-21.656l-6.472-6.472 147.56-25.664c2.96-.512 5.976.296 8.272 2.232 2.296 1.936 3.616 4.768 3.616 7.768 0 3.592-1.928 6.952-5.032 8.768z"/></svg>